<?xml version="1.0" standalone="no"?>
<!DOCTYPE svg PUBLIC "-//W3C//DTD SVG 20010904//EN"
 "http://www.w3.org/TR/2001/REC-SVG-20010904/DTD/svg10.dtd">
<svg version="1.0" xmlns="http://www.w3.org/2000/svg"
 width="512.000000pt" height="512.000000pt" viewBox="0 0 512.000000 512.000000"
 preserveAspectRatio="xMidYMid meet">
<metadata>
Created by potrace 1.16, written by Peter Selinger 2001-2019
</metadata>
<g transform="translate(0.000000,512.000000) scale(0.100000,-0.100000)"
fill="#000000" stroke="none">
<path d="M1817 3895 c-26 -27 -42 -35 -70 -35 -139 0 -287 -79 -368 -196 -58
-85 -85 -208 -68 -313 15 -93 30 -117 100 -150 38 -18 55 -23 46 -12 -65 74
-87 237 -47 344 46 123 173 219 309 233 50 6 61 10 61 25 0 10 11 31 24 46
l24 28 798 3 c879 3 833 6 856 -59 5 -16 19 -34 29 -40 17 -9 19 -6 19 31 0
23 -7 54 -15 70 -33 64 20 60 -862 60 l-802 0 -34 -35z"/>
<path d="M1770 2797 c0 -754 2 -872 15 -904 9 -20 66 -88 128 -151 104 -105
163 -156 141 -120 -4 7 11 -3 35 -22 24 -19 56 -45 72 -58 l29 -23 0 960 c0
648 -3 961 -10 961 -7 0 -10 -130 -10 -387 l1 -388 -123 -120 -123 -120 -5
540 -5 541 -32 39 c-17 22 -50 58 -72 80 l-41 39 0 -867z"/>
<path d="M1560 3621 c-19 -16 -43 -44 -53 -62 l-18 -34 23 30 c12 17 39 45 58
62 43 41 37 43 -10 4z"/>
<path d="M1461 3454 c0 -11 3 -14 6 -6 3 7 2 16 -1 19 -3 4 -6 -2 -5 -13z"/>
<path d="M2212 3408 c3 -7 23 -14 46 -16 33 -2 42 0 42 12 0 12 -11 16 -46 16
-32 0 -44 -4 -42 -12z"/>
<path d="M2325 3410 c-3 -6 0 -13 8 -16 8 -3 227 -4 487 -2 368 2 474 6 478
16 5 16 -963 18 -973 2z"/>
<path d="M2340 3163 c0 -27 -3 -58 -6 -70 -5 -19 -2 -23 15 -23 14 0 21 6 21
20 0 11 4 20 8 20 5 0 17 -9 27 -20 10 -11 23 -20 28 -20 6 0 1 10 -11 23
l-22 23 30 29 c40 38 38 51 -7 59 -80 13 -83 11 -83 -41z m70 8 c0 -5 -7 -12
-16 -15 -22 -9 -24 -8 -24 9 0 8 9 15 20 15 11 0 20 -4 20 -9z"/>
<path d="M2533 3140 c0 -41 2 -58 4 -37 2 20 2 54 0 75 -2 20 -4 3 -4 -38z"/>
<path d="M2697 3203 c-4 -3 -7 -34 -7 -68 l0 -62 65 0 65 0 0 63 c0 64 -15 91
-32 60 -11 -20 -47 -21 -54 -1 -6 16 -26 20 -37 8z m81 -91 c3 -20 0 -23 -20
-20 -33 4 -38 46 -6 44 16 -1 24 -8 26 -24z"/>
<path d="M2850 3140 c0 -65 2 -70 21 -70 18 0 21 5 17 36 l-4 35 31 -36 c20
-25 37 -36 50 -34 17 4 20 14 23 72 3 62 1 67 -18 67 -17 0 -20 -6 -20 -42 l0
-42 -36 42 c-52 62 -64 56 -64 -28z"/>
<path d="M3027 3204 c-4 -4 -7 -36 -7 -71 0 -56 2 -63 20 -63 15 0 20 7 20 25
0 21 5 25 28 25 21 0 32 -7 40 -25 10 -21 18 -25 57 -25 33 0 45 4 45 15 0 10
-10 15 -29 15 -41 0 -49 18 -9 22 46 4 49 28 3 28 -21 0 -34 4 -30 10 3 6 20
10 36 10 24 0 30 4 27 18 -2 13 -13 17 -43 17 -33 0 -42 -4 -53 -27 -9 -19
-21 -28 -38 -28 -30 0 -32 17 -1 22 40 5 26 33 -18 36 -23 2 -44 0 -48 -4z"/>
<path d="M3521 2814 c0 -11 3 -14 6 -6 3 7 2 16 -1 19 -3 4 -6 -2 -5 -13z"/>
<path d="M2495 2804 c-18 -18 -16 -33 7 -47 21 -14 48 -2 48 22 0 30 -34 45
-55 25z m24 -33 c-15 -5 -22 6 -14 19 6 9 10 9 16 -1 5 -8 4 -15 -2 -18z"/>
<path d="M2580 2810 c0 -6 57 -10 151 -10 97 0 148 4 144 10 -4 6 -65 10 -151
10 -89 0 -144 -4 -144 -10z"/>
<path d="M3490 2639 c0 -130 2 -150 15 -145 12 4 15 -5 15 -54 0 -47 -3 -60
-15 -60 -11 0 -15 -11 -15 -37 0 -21 -1 -257 -3 -526 l-3 -487 -22 -23 -23
-22 -869 -3 c-487 -1 -870 -6 -870 -11 0 -5 8 -19 18 -31 l18 -23 860 0 c781
0 863 2 886 17 40 26 53 62 53 145 0 42 -1 376 -3 744 -2 660 -2 667 -22 667
-19 0 -20 -7 -20 -151z"/>
<path d="M2580 2760 c0 -6 58 -10 155 -10 97 0 155 4 155 10 0 6 -58 10 -155
10 -97 0 -155 -4 -155 -10z"/>
<path d="M2514 2629 c-10 -17 13 -36 27 -22 12 12 4 33 -11 33 -5 0 -12 -5
-16 -11z"/>
<path d="M2570 2620 c0 -6 85 -10 235 -10 150 0 235 4 235 10 0 6 -85 10 -235
10 -150 0 -235 -4 -235 -10z"/>
<path d="M2580 2555 c0 -13 45 -15 356 -15 280 0 355 3 352 13 -4 9 -86 13
-356 15 -309 2 -352 0 -352 -13z"/>
<path d="M2510 2495 c0 -8 9 -15 20 -15 11 0 20 7 20 15 0 8 -9 15 -20 15 -11
0 -20 -7 -20 -15z"/>
<path d="M2570 2495 c0 -13 23 -15 150 -15 127 0 150 2 150 15 0 13 -23 15
-150 15 -127 0 -150 -2 -150 -15z"/>
<path d="M2517 2405 c-8 -18 11 -31 25 -17 11 11 3 32 -12 32 -4 0 -10 -7 -13
-15z"/>
<path d="M2577 2404 c-20 -20 37 -24 359 -24 308 0 354 2 354 15 0 13 -46 15
-353 15 -195 0 -357 -3 -360 -6z"/>
<path d="M2507 2273 c6 -16 34 -14 40 3 2 7 -7 12 -21 12 -17 0 -23 -5 -19
-15z"/>
<path d="M2580 2282 c0 -10 697 -25 711 -16 32 19 -35 24 -357 24 -195 0 -354
-4 -354 -8z"/>
<path d="M2510 2230 c0 -5 9 -10 20 -10 11 0 20 5 20 10 0 6 -9 10 -20 10 -11
0 -20 -4 -20 -10z"/>
<path d="M2580 2230 c0 -6 85 -10 235 -10 150 0 235 4 235 10 0 6 -85 10 -235
10 -150 0 -235 -4 -235 -10z"/>
<path d="M2510 2185 c0 -8 9 -15 20 -15 11 0 20 7 20 15 0 8 -9 15 -20 15 -11
0 -20 -7 -20 -15z"/>
<path d="M2580 2184 c0 -12 47 -14 262 -14 152 0 258 4 252 9 -5 5 -123 11
-261 14 -210 4 -253 2 -253 -9z"/>
<path d="M2500 2045 c0 -9 9 -15 25 -15 16 0 25 6 25 15 0 9 -9 15 -25 15 -16
0 -25 -6 -25 -15z"/>
<path d="M2580 2040 c0 -6 58 -10 155 -10 97 0 155 4 155 10 0 6 -58 10 -155
10 -97 0 -155 -4 -155 -10z"/>
<path d="M2743 1922 c-205 -3 -204 -22 1 -22 85 0 157 4 161 9 9 15 -2 16
-162 13z"/>
<path d="M2501 1906 c-16 -20 -3 -46 24 -46 13 0 26 7 29 16 7 19 -10 44 -29
44 -7 0 -18 -6 -24 -14z m29 -16 c0 -5 -5 -10 -11 -10 -5 0 -7 5 -4 10 3 6 8
10 11 10 2 0 4 -4 4 -10z"/>
<path d="M2587 1873 c-4 -3 -7 -10 -7 -15 0 -4 161 -7 358 -6 232 2 356 7 355
13 -3 11 -695 20 -706 8z"/>
</g>
</svg>